<?xml version="1.0"?><svg version="1.1" xmlns="http://www.w3.org/2000/svg" xmlns:xlink="http://www.w3.org/1999/xlink" width="1024" height="1024" viewBox="0 0 1024 1024"><g></g><path d="M1024 768v73.14q0 14.86-10.86 25.71t-25.71 10.86h-950.86q-14.86 0-25.71-10.86t-10.86-25.71v-73.14q0-14.86 10.86-25.71t25.71-10.86h950.86q14.86 0 25.71 10.86t10.86 25.71zM804.57 548.57v73.14q0 14.86-10.86 25.71t-25.71 10.86h-731.43q-14.86 0-25.71-10.86t-10.86-25.71v-73.14q0-14.86 10.86-25.71t25.71-10.86h731.43q14.86 0 25.71 10.86t10.86 25.71zM950.86 329.14v73.14q0 14.86-10.86 25.71t-25.71 10.86h-877.71q-14.86 0-25.71-10.86t-10.86-25.71v-73.14q0-14.86 10.86-25.71t25.71-10.86h877.71q14.86 0 25.71 10.86t10.86 25.71zM731.43 109.71v73.14q0 14.86-10.86 25.71t-25.71 10.86h-658.29q-14.86 0-25.71-10.86t-10.86-25.71v-73.14q0-14.86 10.86-25.71t25.71-10.86h658.29q14.86 0 25.71 10.86t10.86 25.71z" fill="#000000"></path></svg>