<?xml version="1.0"?><svg version="1.1" xmlns="http://www.w3.org/2000/svg" xmlns:xlink="http://www.w3.org/1999/xlink" width="1024" height="989.6119402985075" viewBox="0 0 1024 989.6119402985075"><g></g><path d="M341.15 784.92q0-28.25-19.99-48.24t-48.24-19.99-48.24 19.99-19.99 48.24 19.99 48.24 48.24 19.99 48.24-19.99 19.99-48.24zM136.46 512h204.69v-136.46h-84.22q-7.46 1.07-11.73 4.8l-103.95 103.95q-3.73 6.4-4.8 11.73v15.99zM818.76 784.92q0-28.25-19.99-48.24t-48.24-19.99-48.24 19.99-19.99 48.24 19.99 48.24 48.24 19.99 48.24-19.99 19.99-48.24zM886.99 426.71v-102.34q0-7.46-4.8-12.26t-12.26-4.8h-119.4v-119.4q0-7.46-4.8-12.26t-12.26-4.8h-102.34q-7.46 0-12.26 4.8t-4.8 12.26v119.4h-119.4q-7.46 0-12.26 4.8t-4.8 12.26v102.34q0 7.46 4.8 12.26t12.26 4.8h119.4v119.4q0 7.46 4.8 12.26t12.26 4.8h102.34q7.46 0 12.26-4.8t4.8-12.26v-119.4h119.4q7.46 0 12.26-4.8t4.8-12.26zM1023.45 136.73v614.07q0 13.86-10.13 23.99t-23.99 10.13h-102.34q0 56.5-39.98 96.48t-96.48 39.98-96.48-39.98-39.98-96.48h-204.69q0 56.5-39.98 96.48t-96.48 39.98-96.48-39.98-39.98-96.48h-68.23q-13.86 0-23.99-10.13t-10.13-23.99 10.13-23.99 23.99-10.13v-221.75q0-13.86 6.93-30.92t17.06-27.19l105.54-105.54q10.13-10.13 27.19-17.06t30.92-6.93h85.29v-170.58q0-13.86 10.13-23.99t23.99-10.13h614.07q13.86 0 23.99 10.13t10.13 23.99z" fill="#000000"></path></svg>