<?xml version="1.0"?><svg version="1.1" xmlns="http://www.w3.org/2000/svg" xmlns:xlink="http://www.w3.org/1999/xlink" width="1024" height="1024" viewBox="0 0 1024 1024"><g></g><path d="M548.57 146.29q0-14.86-10.86-25.71t-25.71-10.86-25.71 10.86-10.86 25.71 10.86 25.71 25.71 10.86 25.71-10.86 10.86-25.71zM1024 676.57v201.14q0 12.57-11.43 17.14-4.57 1.14-6.86 1.14-7.43 0-13.14-5.14l-53.14-53.14q-68 81.71-182 129.43t-245.43 47.71-245.43-47.71-182-129.43l-53.14 53.14q-5.14 5.14-13.14 5.14-2.29 0-6.86-1.14-11.43-4.57-11.43-17.14v-201.14q0-8 5.14-13.14t13.14-5.14h201.14q12.57 0 17.14 11.43 4.57 10.86-4 20l-57.14 57.14q38.29 52 108.29 87.71t155.14 47.14v-369.71h-109.71q-14.86 0-25.71-10.86t-10.86-25.71v-73.14q0-14.86 10.86-25.71t25.71-10.86h109.71v-93.14q-33.14-19.43-53.14-52.86t-20-73.43q0-60.57 42.86-103.43t103.43-42.86 103.43 42.86 42.86 103.43q0 40-20 73.43t-53.14 52.86v93.14h109.71q14.86 0 25.71 10.86t10.86 25.71v73.14q0 14.86-10.86 25.71t-25.71 10.86h-109.71v369.71q85.14-11.43 155.14-47.14t108.29-87.71l-57.14-57.14q-8.57-9.14-4-20 4.57-11.43 17.14-11.43h201.14q8 0 13.14 5.14t5.14 13.14z" fill="#000000"></path></svg>