<?xml version="1.0"?><svg version="1.1" xmlns="http://www.w3.org/2000/svg" xmlns:xlink="http://www.w3.org/1999/xlink" width="914.432" height="1024" viewBox="0 0 914.432 1024"><g></g><path d="M391.28 276q9.14 0 15.71-6.57t6.57-15.71-6.57-15.71-15.71-6.57-15.43 6.57-6.29 15.71 6.29 15.71 15.43 6.57zM632.42 276q9.14 0 15.43-6.57t6.29-15.71-6.29-15.71-15.43-6.57-15.71 6.57-6.57 15.71 6.57 15.71 15.71 6.57zM168.43 381.14q24 0 41.14 17.14t17.14 41.14v245.71q0 24.57-16.86 41.71t-41.43 17.14-41.71-17.14-17.14-41.71v-245.71q0-24 17.14-41.14t41.71-17.14zM774.14 392v380.57q0 26.29-18.29 44.57t-44 18.29h-42.86v129.71q0 24.57-17.14 41.71t-41.71 17.14-41.71-17.14-17.14-41.71v-129.71h-78.86v129.71q0 24.57-17.14 41.71t-41.71 17.14q-24 0-41.14-17.14t-17.14-41.71l-0.57-129.71h-42.29q-26.29 0-44.57-18.29t-18.29-44.57v-380.57h524.57zM641.57 160.57q61.14 31.43 97.71 87.71t36.57 123.14h-528.57q0-66.86 36.57-123.14t98.29-87.71l-40.57-74.86q-4-7.43 2.86-11.43 7.43-3.43 11.43 3.43l41.14 75.43q54.29-24 114.86-24t114.86 24l41.14-75.43q4-6.86 11.43-3.43 6.86 4 2.86 11.43zM914.14 439.43v245.71q0 24.57-17.14 41.71t-41.71 17.14q-24 0-41.14-17.14t-17.14-41.71v-245.71q0-24.57 17.14-41.43t41.14-16.86q24.57 0 41.71 16.86t17.14 41.43z" fill="#000000"></path></svg>