<?xml version="1.0"?><svg xmlns="http://www.w3.org/2000/svg" width="576" height="576" viewBox="0 0 576 576"><g id="gridlines">
	<line fill="none" stroke="#000000" stroke-width="0.75" stroke-miterlimit="10" x1="0" y1="576" x2="576" y2="0"/>
	<line fill="none" stroke="#000000" stroke-width="0.75" stroke-miterlimit="10" x1="576" y1="576" x2="0" y2="0"/>
	<line fill="none" stroke="#000000" stroke-width="0.25" stroke-miterlimit="10" x1="0" y1="0" x2="576" y2="0"/>
	<line fill="none" stroke="#000000" stroke-width="0.25" stroke-miterlimit="10" x1="0" y1="24" x2="576" y2="24"/>
	<line fill="none" stroke="#000000" stroke-width="0.25" stroke-miterlimit="10" x1="0" y1="48" x2="576" y2="48"/>
	<line fill="none" stroke="#000000" stroke-width="0.25" stroke-miterlimit="10" x1="0" y1="72" x2="576" y2="72"/>
	<line fill="none" stroke="#000000" stroke-width="0.25" stroke-miterlimit="10" x1="0" y1="96" x2="576" y2="96"/>
	<line fill="none" stroke="#000000" stroke-width="0.25" stroke-miterlimit="10" x1="0" y1="120" x2="576" y2="120"/>
	<line fill="none" stroke="#000000" stroke-width="0.25" stroke-miterlimit="10" x1="0" y1="144" x2="576" y2="144"/>
	<line fill="none" stroke="#000000" stroke-width="0.25" stroke-miterlimit="10" x1="0" y1="168" x2="576" y2="168"/>
	<line fill="none" stroke="#000000" stroke-width="0.75" stroke-miterlimit="10" x1="0" y1="192" x2="576" y2="192"/>
	<line fill="none" stroke="#000000" stroke-width="0.25" stroke-miterlimit="10" x1="0" y1="216" x2="576" y2="216"/>
	<line fill="none" stroke="#000000" stroke-width="0.25" stroke-miterlimit="10" x1="0" y1="240" x2="576" y2="240"/>
	<line fill="none" stroke="#000000" stroke-width="0.25" stroke-miterlimit="10" x1="0" y1="264" x2="576" y2="264"/>
	<line fill="none" stroke="#000000" stroke-width="0.75" stroke-miterlimit="10" x1="0" y1="288" x2="576" y2="288"/>
	<line fill="none" stroke="#000000" stroke-width="0.25" stroke-miterlimit="10" x1="0" y1="312" x2="576" y2="312"/>
	<line fill="none" stroke="#000000" stroke-width="0.25" stroke-miterlimit="10" x1="0" y1="312" x2="576" y2="312"/>
	<line fill="none" stroke="#000000" stroke-width="0.25" stroke-miterlimit="10" x1="0" y1="336" x2="576" y2="336"/>
	<line fill="none" stroke="#000000" stroke-width="0.25" stroke-miterlimit="10" x1="0" y1="360" x2="576" y2="360"/>
	<line fill="none" stroke="#000000" stroke-width="0.75" stroke-miterlimit="10" x1="0" y1="384" x2="576" y2="384"/>
	<line fill="none" stroke="#000000" stroke-width="0.25" stroke-miterlimit="10" x1="0" y1="408" x2="576" y2="408"/>
	<line fill="none" stroke="#000000" stroke-width="0.25" stroke-miterlimit="10" x1="0" y1="432" x2="576" y2="432"/>
	<line fill="none" stroke="#000000" stroke-width="0.25" stroke-miterlimit="10" x1="0" y1="456" x2="576" y2="456"/>
	<line fill="none" stroke="#000000" stroke-width="0.25" stroke-miterlimit="10" x1="0" y1="480" x2="576" y2="480"/>
	<line fill="none" stroke="#000000" stroke-width="0.25" stroke-miterlimit="10" x1="0" y1="504" x2="576" y2="504"/>
	<line fill="none" stroke="#000000" stroke-width="0.25" stroke-miterlimit="10" x1="0" y1="528" x2="576" y2="528"/>
	<line fill="none" stroke="#000000" stroke-width="0.25" stroke-miterlimit="10" x1="0" y1="552" x2="576" y2="552"/>
	<line fill="none" stroke="#000000" stroke-width="0.25" stroke-miterlimit="10" x1="0" y1="576" x2="576" y2="576"/>
	<line fill="none" stroke="#000000" stroke-width="0.25" stroke-miterlimit="10" x1="0" y1="576" x2="0" y2="0"/>
	<line fill="none" stroke="#000000" stroke-width="0.25" stroke-miterlimit="10" x1="24" y1="576" x2="24" y2="0"/>
	<line fill="none" stroke="#000000" stroke-width="0.25" stroke-miterlimit="10" x1="48" y1="576" x2="48" y2="0"/>
	<line fill="none" stroke="#000000" stroke-width="0.25" stroke-miterlimit="10" x1="72" y1="576" x2="72" y2="0"/>
	<line fill="none" stroke="#000000" stroke-width="0.25" stroke-miterlimit="10" x1="96" y1="576" x2="96" y2="0"/>
	<line fill="none" stroke="#000000" stroke-width="0.25" stroke-miterlimit="10" x1="120" y1="576" x2="120" y2="0"/>
	<line fill="none" stroke="#000000" stroke-width="0.25" stroke-miterlimit="10" x1="144" y1="576" x2="144" y2="0"/>
	<line fill="none" stroke="#000000" stroke-width="0.25" stroke-miterlimit="10" x1="168" y1="576" x2="168" y2="0"/>
	<line fill="none" stroke="#000000" stroke-width="0.75" stroke-miterlimit="10" x1="192" y1="576" x2="192" y2="0"/>
	<line fill="none" stroke="#000000" stroke-width="0.25" stroke-miterlimit="10" x1="216" y1="576" x2="216" y2="0"/>
	<line fill="none" stroke="#000000" stroke-width="0.25" stroke-miterlimit="10" x1="240" y1="576" x2="240" y2="0"/>
	<line fill="none" stroke="#000000" stroke-width="0.25" stroke-miterlimit="10" x1="264" y1="576" x2="264" y2="0"/>
	<line fill="none" stroke="#000000" stroke-width="0.75" stroke-miterlimit="10" x1="288" y1="576" x2="288" y2="0"/>
	<line fill="none" stroke="#000000" stroke-width="0.25" stroke-miterlimit="10" x1="312" y1="576" x2="312" y2="0"/>
	<line fill="none" stroke="#000000" stroke-width="0.25" stroke-miterlimit="10" x1="312" y1="576" x2="312" y2="0"/>
	<line fill="none" stroke="#000000" stroke-width="0.25" stroke-miterlimit="10" x1="336" y1="576" x2="336" y2="0"/>
	<line fill="none" stroke="#000000" stroke-width="0.25" stroke-miterlimit="10" x1="360" y1="576" x2="360" y2="0"/>
	<line fill="none" stroke="#000000" stroke-width="0.75" stroke-miterlimit="10" x1="384" y1="576" x2="384" y2="0"/>
	<line fill="none" stroke="#000000" stroke-width="0.25" stroke-miterlimit="10" x1="408" y1="576" x2="408" y2="0"/>
	<line fill="none" stroke="#000000" stroke-width="0.25" stroke-miterlimit="10" x1="432" y1="576" x2="432" y2="0"/>
	<line fill="none" stroke="#000000" stroke-width="0.25" stroke-miterlimit="10" x1="456" y1="576" x2="456" y2="0"/>
	<line fill="none" stroke="#000000" stroke-width="0.25" stroke-miterlimit="10" x1="480" y1="576" x2="480" y2="0"/>
	<line fill="none" stroke="#000000" stroke-width="0.25" stroke-miterlimit="10" x1="504" y1="576" x2="504" y2="0"/>
	<line fill="none" stroke="#000000" stroke-width="0.25" stroke-miterlimit="10" x1="528" y1="576" x2="528" y2="0"/>
	<line fill="none" stroke="#000000" stroke-width="0.25" stroke-miterlimit="10" x1="552" y1="576" x2="552" y2="0"/>
	<line fill="none" stroke="#000000" stroke-width="0.25" stroke-miterlimit="10" x1="576" y1="576" x2="576" y2="0"/>
	<circle fill="none" stroke="#000000" stroke-width="0.75" stroke-miterlimit="10" cx="288" cy="288" r="240"/>
	<circle fill="none" stroke="#000000" stroke-width="0.75" stroke-miterlimit="10" cx="288" cy="288" r="120"/>
	<path fill="none" stroke="#000000" stroke-width="0.75" stroke-miterlimit="10" d="M72,120c0-24,24-48,48-48h336c24,0,48,24,48,48
		v336c0,24-24,48-48,48H120c-24,0-48-24-48-48V120z"/>
	<path fill="none" stroke="#000000" stroke-width="0.75" stroke-miterlimit="10" d="M120,96c0-24,24-48,48-48h240c24,0,48,24,48,48
		v384c0,24-24,48-48,48H168c-24,0-48-24-48-48V96z"/>
	<path fill="none" stroke="#000000" stroke-width="0.75" stroke-miterlimit="10" d="M96,456c-24,0-48-24-48-48V168c0-24,24-48,48-48
		h384c24,0,48,24,48,48v240c0,24-24,48-48,48H96z"/>
</g><path d="m144 432c0 13.2 10.8 24 24 24h24v84c0 19.9 16.1 36 36 36s36-16.1 36-36v-84h48v84c0 19.9 16.1 36 36 36s36-16.1 36-36v-84h24c13.2 0 24-10.8 24-24v-240h-288v240z m-60-240c-19.9 0-36 16.1-36 36v168c0 19.9 16.1 36 36 36s36-16.1 36-36v-168c0-19.9-16.1-36-36-36z m408 0c-19.9 0-36 16.1-36 36v168c0 19.9 16.1 36 36 36s36-16.1 36-36v-168c0-19.9-16.1-36-36-36z m-119.3-140.2l31.3-31.3c4.7-4.7 4.7-12.2 0-16.9-4.6-4.7-12.2-4.7-16.9 0l-35.5 35.4c-19.2-9.5-40.7-15-63.6-15-23 0-44.6 5.5-64 15.1l-35.6-35.6c-4.7-4.7-12.2-4.7-16.9 0-4.7 4.7-4.7 12.2 0 16.9l31.4 31.4c-35.6 26.3-58.9 68.6-58.9 116.2h288c0-47.8-23.4-90-59.3-116.2z m-132.7 68.2h-24v-24h24v24z m120 0h-24v-24h24v24z"/></svg>